<svg width="57" height="57" viewBox="0 0 57 57" fill="none" xmlns="http://www.w3.org/2000/svg">
<rect x="0.785767" y="0.853638" width="56" height="56" rx="28" fill="white" fill-opacity="0.08"/>
<path d="M20.7858 34.8536C20.2358 34.8536 19.7651 34.658 19.3738 34.2666C18.9818 33.8746 18.7858 33.4036 18.7858 32.8536V24.8536C18.7858 24.3036 18.9818 23.833 19.3738 23.4416C19.7651 23.0496 20.2358 22.8536 20.7858 22.8536H36.7858C37.3358 22.8536 37.8068 23.0496 38.1988 23.4416C38.5901 23.833 38.7858 24.3036 38.7858 24.8536V32.8536C38.7858 33.4036 38.5901 33.8746 38.1988 34.2666C37.8068 34.658 37.3358 34.8536 36.7858 34.8536H20.7858ZM20.7858 32.8536H36.7858V24.8536H33.7858V28.8536H31.7858V24.8536H29.7858V28.8536H27.7858V24.8536H25.7858V28.8536H23.7858V24.8536H20.7858V32.8536Z" fill="white"/>
</svg>
