<svg width="57" height="57" viewBox="0 0 57 57" fill="none" xmlns="http://www.w3.org/2000/svg">
<rect x="0.785767" y="0.853638" width="56" height="56" rx="28" fill="white" fill-opacity="0.08"/>
<path d="M17.7858 36.8536V34.0536C17.7858 33.487 17.9318 32.966 18.2238 32.4906C18.5151 32.016 18.9024 31.6536 19.3858 31.4036C20.4191 30.887 21.4691 30.4993 22.5358 30.2406C23.6024 29.9826 24.6858 29.8536 25.7858 29.8536C26.8858 29.8536 27.9691 29.9826 29.0358 30.2406C30.1024 30.4993 31.1524 30.887 32.1858 31.4036C32.6691 31.6536 33.0564 32.016 33.3478 32.4906C33.6398 32.966 33.7858 33.487 33.7858 34.0536V36.8536H17.7858ZM35.7858 36.8536V33.8536C35.7858 33.1203 35.5818 32.416 35.1738 31.7406C34.7651 31.066 34.1858 30.487 33.4358 30.0036C34.2858 30.1036 35.0858 30.2743 35.8358 30.5156C36.5858 30.7576 37.2858 31.0536 37.9358 31.4036C38.5358 31.737 38.9941 32.1076 39.3108 32.5156C39.6274 32.9243 39.7858 33.3703 39.7858 33.8536V36.8536H35.7858ZM25.7858 28.8536C24.6858 28.8536 23.7441 28.462 22.9608 27.6786C22.1774 26.8953 21.7858 25.9536 21.7858 24.8536C21.7858 23.7536 22.1774 22.812 22.9608 22.0286C23.7441 21.2453 24.6858 20.8536 25.7858 20.8536C26.8858 20.8536 27.8274 21.2453 28.6108 22.0286C29.3941 22.812 29.7858 23.7536 29.7858 24.8536C29.7858 25.9536 29.3941 26.8953 28.6108 27.6786C27.8274 28.462 26.8858 28.8536 25.7858 28.8536ZM35.7858 24.8536C35.7858 25.9536 35.3941 26.8953 34.6108 27.6786C33.8274 28.462 32.8858 28.8536 31.7858 28.8536C31.6024 28.8536 31.3691 28.833 31.0858 28.7916C30.8024 28.7496 30.5691 28.7036 30.3858 28.6536C30.8358 28.1203 31.1814 27.5286 31.4228 26.8786C31.6648 26.2286 31.7858 25.5536 31.7858 24.8536C31.7858 24.1536 31.6648 23.4786 31.4228 22.8286C31.1814 22.1786 30.8358 21.587 30.3858 21.0536C30.6191 20.9703 30.8524 20.916 31.0858 20.8906C31.3191 20.866 31.5524 20.8536 31.7858 20.8536C32.8858 20.8536 33.8274 21.2453 34.6108 22.0286C35.3941 22.812 35.7858 23.7536 35.7858 24.8536Z" fill="white"/>
</svg>
